REM MD5 2c8cd188c007c60318fece4d73b242d1
FILE "Euro Demo 16 (France).bin" BINARY
  TRACK 01 MODE2/2352
    INDEX 01 00:00:00
  TRACK 02 AUDIO
    INDEX 00 44:18:01
    INDEX 01 44:20:01
  TRACK 03 AUDIO
    INDEX 00 47:17:37
    INDEX 01 47:19:37
REM LEADOUT 50:20:68
